<?xml version="1.0" standalone="no"?><!-- Generator: Gravit.io --><svg xmlns="http://www.w3.org/2000/svg" xmlns:xlink="http://www.w3.org/1999/xlink" style="isolation:isolate" viewBox="0 0 32 32" width="32" height="32"><defs><clipPath id="_clipPath_jc7jxI571uEYNuMHJfqzgBecpER1Ah3q"><rect width="32" height="32"/></clipPath></defs><g clip-path="url(#_clipPath_jc7jxI571uEYNuMHJfqzgBecpER1Ah3q)"><g id="g12"><path d=" M 16 -0.001 C 11.655 -0.001 11.11 0.017 9.403 0.095 C 7.7 0.173 6.537 0.443 5.519 0.839 C 4.467 1.248 3.575 1.795 2.685 2.684 C 1.796 3.574 1.249 4.466 0.84 5.518 C 0.444 6.536 0.174 7.699 0.096 9.402 C 0.018 11.108 0 11.653 0 15.999 C 0 20.344 0.018 20.889 0.096 22.595 C 0.174 24.298 0.444 25.462 0.84 26.479 C 1.249 27.531 1.796 28.424 2.685 29.313 C 3.575 30.203 4.467 30.75 5.519 31.159 C 6.537 31.554 7.7 31.825 9.403 31.902 C 11.11 31.98 11.655 31.999 16 31.999 C 20.345 31.999 20.89 31.98 22.597 31.902 C 24.3 31.825 25.463 31.554 26.481 31.159 C 27.533 30.75 28.425 30.203 29.315 29.313 C 30.204 28.424 30.751 27.531 31.16 26.479 C 31.556 25.462 31.826 24.298 31.904 22.595 C 31.982 20.889 32 20.344 32 15.999 C 32 11.653 31.982 11.108 31.904 9.402 C 31.826 7.699 31.556 6.536 31.16 5.518 C 30.751 4.466 30.204 3.574 29.315 2.684 C 28.425 1.795 27.533 1.248 26.481 0.839 C 25.463 0.443 24.3 0.173 22.597 0.095 C 20.89 0.017 20.345 -0.001 16 -0.001 Z  M 16 2.882 C 20.272 2.882 20.778 2.898 22.465 2.975 C 24.025 3.046 24.873 3.307 25.436 3.526 C 26.183 3.816 26.716 4.163 27.276 4.723 C 27.836 5.283 28.183 5.816 28.473 6.562 C 28.692 7.126 28.953 7.973 29.024 9.533 C 29.101 11.22 29.117 11.727 29.117 15.999 C 29.117 20.271 29.101 20.777 29.024 22.464 C 28.953 24.024 28.692 24.871 28.473 25.435 C 28.183 26.182 27.836 26.715 27.276 27.275 C 26.716 27.835 26.183 28.181 25.436 28.472 C 24.873 28.691 24.025 28.951 22.465 29.022 C 20.778 29.099 20.272 29.116 16 29.116 C 11.728 29.116 11.222 29.099 9.535 29.022 C 7.975 28.951 7.127 28.691 6.564 28.472 C 5.817 28.181 5.284 27.835 4.724 27.275 C 4.164 26.715 3.817 26.182 3.527 25.435 C 3.308 24.871 3.047 24.024 2.976 22.464 C 2.899 20.777 2.883 20.271 2.883 15.999 C 2.883 11.727 2.899 11.22 2.976 9.533 C 3.047 7.973 3.308 7.126 3.527 6.562 C 3.817 5.816 4.164 5.283 4.724 4.723 C 5.284 4.163 5.817 3.816 6.564 3.526 C 7.127 3.307 7.975 3.046 9.535 2.975 C 11.222 2.898 11.728 2.882 16 2.882 Z " fill="rgb(16,15,13)"/><path d=" M 16 21.332 C 13.054 21.332 10.667 18.944 10.667 15.999 C 10.667 13.053 13.054 10.665 16 10.665 C 18.946 10.665 21.333 13.053 21.333 15.999 C 21.333 18.944 18.946 21.332 16 21.332 L 16 21.332 Z  M 16 7.782 C 11.462 7.782 7.784 11.461 7.784 15.999 C 7.784 20.536 11.462 24.215 16 24.215 C 20.538 24.215 24.216 20.536 24.216 15.999 C 24.216 11.461 20.538 7.782 16 7.782 Z " fill="rgb(16,15,13)"/><path d=" M 26.461 7.458 C 26.461 8.518 25.601 9.378 24.541 9.378 C 23.48 9.378 22.621 8.518 22.621 7.458 C 22.621 6.397 23.48 5.538 24.541 5.538 C 25.601 5.538 26.461 6.397 26.461 7.458" fill="rgb(16,15,13)"/></g></g></svg>