<?xml version="1.0" standalone="no"?><!-- Generator: Gravit.io --><svg xmlns="http://www.w3.org/2000/svg" xmlns:xlink="http://www.w3.org/1999/xlink" style="isolation:isolate" viewBox="0 0 32 32" width="32" height="32"><defs><clipPath id="_clipPath_1IgbWrKo0uDBokyk3aIogThtcWoEQ336"><rect width="32" height="32"/></clipPath></defs><g clip-path="url(#_clipPath_1IgbWrKo0uDBokyk3aIogThtcWoEQ336)"><rect x="0" y="0" width="32" height="32" transform="matrix(1,0,0,1,0,0)" fill="none"/><path d=" M 12.29 24.127 C 19.837 24.127 23.965 17.874 23.965 12.452 C 23.965 12.274 23.965 12.098 23.953 11.922 C 24.756 11.341 25.449 10.622 26 9.798 C 25.251 10.129 24.457 10.347 23.643 10.443 C 24.5 9.93 25.141 9.124 25.447 8.174 C 24.642 8.652 23.761 8.988 22.842 9.17 C 21.57 7.817 19.549 7.486 17.912 8.362 C 16.275 9.238 15.429 11.103 15.849 12.912 C 12.55 12.747 9.476 11.188 7.392 8.625 C 6.303 10.5 6.859 12.898 8.662 14.102 C 8.009 14.083 7.371 13.907 6.8 13.589 C 6.8 13.606 6.8 13.623 6.8 13.641 C 6.801 15.594 8.177 17.276 10.092 17.663 C 9.488 17.828 8.854 17.852 8.239 17.734 C 8.777 19.405 10.317 20.55 12.073 20.583 C 10.62 21.725 8.825 22.345 6.977 22.343 C 6.65 22.343 6.324 22.323 6 22.284 C 7.877 23.488 10.06 24.127 12.29 24.124" fill="rgb(29,161,242)"/></g></svg>