<?xml version="1.0" standalone="no"?><!-- Generator: Gravit.io --><svg xmlns="http://www.w3.org/2000/svg" xmlns:xlink="http://www.w3.org/1999/xlink" style="isolation:isolate" viewBox="0 0 32 32" width="32" height="32"><defs><clipPath id="_clipPath_q7K8vgje7C3Qhxicpnko5C5YejOmOQAp"><rect width="32" height="32"/></clipPath></defs><g clip-path="url(#_clipPath_q7K8vgje7C3Qhxicpnko5C5YejOmOQAp)"><g id="Group"><path d=" M 0 0 L 32 0 L 32 32 L 0 32 L 0 0 Z " fill="none"/><g id="g20"><path d=" M 30.054 8.894 C 29.716 7.623 28.723 6.623 27.46 6.284 C 25.173 5.667 16 5.667 16 5.667 C 16 5.667 6.827 5.667 4.54 6.284 C 3.278 6.623 2.284 7.623 1.946 8.894 C 1.333 11.196 1.333 16 1.333 16 C 1.333 16 1.333 20.804 1.946 23.106 C 2.284 24.376 3.278 25.377 4.54 25.716 C 6.827 26.333 16 26.333 16 26.333 C 16 26.333 25.173 26.333 27.46 25.716 C 28.723 25.377 29.716 24.376 30.054 23.106 C 30.667 20.804 30.667 16 30.667 16 C 30.667 16 30.667 11.196 30.054 8.894 Z " fill="rgb(255,0,0)"/></g><g id="g24"><path d=" M 13 20.361 L 20.667 16 L 13 11.638 L 13 20.361 Z " fill="rgb(255,255,255)"/></g></g></g></svg>